<svg xmlns="http://www.w3.org/2000/svg" version="1.1" xmlns:xlink="http://www.w3.org/1999/xlink" xmlns:svgjs="http://svgjs.dev/svgjs" viewBox="0 0 800 800" opacity="1"><defs><filter id="bbburst-blur-1" x="-100%" y="-100%" width="400%" height="400%"><feGaussianBlur in="SourceGraphic" stdDeviation="1"></feGaussianBlur></filter><filter id="bbburst-blur-2" x="-100%" y="-100%" width="400%" height="400%"><feGaussianBlur in="SourceGraphic" stdDeviation="2"></feGaussianBlur></filter><filter id="bbburst-blur-3" x="-100%" y="-100%" width="400%" height="400%"><feGaussianBlur in="SourceGraphic" stdDeviation="4"></feGaussianBlur></filter><filter id="bbburst-blur-4" x="-100%" y="-100%" width="400%" height="400%"><feGaussianBlur in="SourceGraphic" stdDeviation="12"></feGaussianBlur></filter><symbol id="bbburst-shape-1" viewBox="0 0 194 167"><path d="m97 0 96.129 166.5H.871L97 0Z"></path></symbol><symbol id="bbburst-shape-8" viewBox="0 0 87 168"><path d="m12 12 31.2546 18.0749c16.4102 9.4902 20.014 31.6325 7.4603 45.8369L36.3296 92.1884c-12.5684 14.2206-8.9394 36.3916 7.5068 45.8636L75 156" stroke-width="14" stroke-linecap="round" stroke-linejoin="round"></path></symbol></defs><use xlink:href="#bbburst-shape-8" width="28.007162770118757" opacity="0.5816135543093914" transform="matrix(0.8553900243661223,-0.5179844652254783,0.5179844652254783,0.8553900243661223,354.2766325851305,138.32686921449147)" fill="none" stroke="#ffbd9b" filter="url(#bbburst-blur-1)"></use><use xlink:href="#bbburst-shape-1" width="24.30345709047876" opacity="0.3245516328166097" transform="matrix(1.0965644072986283,0.6000387492869173,-0.6000387492869173,1.0965644072986283,642.8500327928111,257.63795942692434)" fill="#00a19d" filter="url(#bbburst-blur-3)"></use><use xlink:href="#bbburst-shape-8" width="20.48844636240445" opacity="0.6403218134465901" transform="matrix(0.843173337458868,0.5376418166386185,-0.5376418166386185,0.843173337458868,444.6123699611929,61.18346947769322)" fill="none" stroke="#2c2891" filter="url(#bbburst-blur-1)"></use><use xlink:href="#bbburst-shape-8" width="24.242393043565784" opacity="0.641970599411574" transform="matrix(0.9528620160024431,-0.30340398556999854,0.30340398556999854,0.9528620160024431,380.84464765436843,-91.55938034952692)" fill="none" stroke="#00a19d" filter="url(#bbburst-blur-1)"></use><use xlink:href="#bbburst-shape-8" width="22.943322190434028" opacity="0.4956563326942447" transform="matrix(0.8758566004917376,-0.48257146141795065,0.48257146141795065,0.8758566004917376,379.2374262837067,-79.97401363617502)" fill="none" stroke="#ffa6d5" filter="url(#bbburst-blur-2)"></use><use xlink:href="#bbburst-shape-1" width="24.24828861080454" opacity="0.5417787980412593" transform="matrix(0.9999184397897866,-0.012771600070425184,0.012771600070425184,0.9999184397897866,268.8722996660051,-171.67044534372116)" fill="#ffbd9b" filter="url(#bbburst-blur-2)"></use><use xlink:href="#bbburst-shape-1" width="17.326963890942427" opacity="0.7881873132877713" transform="matrix(0.7430721053928561,0.6692113613702537,-0.6692113613702537,0.7430721053928561,754.1981616107769,118.0227662734008)" fill="#ffbd9b"></use><use xlink:href="#bbburst-shape-8" width="25.062873161621894" opacity="0.4978087445880598" transform="matrix(0.9975872917325795,-0.06942330569525847,0.06942330569525847,0.9975872917325795,474.7903033956811,196.33622566648387)" fill="none" stroke="#2c2891" filter="url(#bbburst-blur-2)"></use><use xlink:href="#bbburst-shape-1" width="12.782640593997694" opacity="0.9151639442627939" transform="matrix(0.9275961456130981,0.3735845160652729,-0.3735845160652729,0.9275961456130981,568.3387156024147,-2.4008245976276044)" fill="#ffbd9b"></use><use xlink:href="#bbburst-shape-1" width="16.941899613288406" opacity="0.8728481137108852" transform="matrix(0.9727858563372367,0.23170601569710925,-0.23170601569710925,0.9727858563372367,427.2559719545957,6.875885716564028)" fill="#2c2891"></use><use xlink:href="#bbburst-shape-1" width="36.68532144685434" opacity="0.05414653291275717" transform="matrix(1.354755965138121,-1.107761831316948,1.107761831316948,1.354755965138121,289.01346204768817,-353.41467961599056)" fill="#2c2891" filter="url(#bbburst-blur-4)"></use><use xlink:href="#bbburst-shape-8" width="23.952844948573503" opacity="0.4436162105573449" transform="matrix(0.8741772647476548,0.4856069499073388,-0.4856069499073388,0.8741772647476548,832.5797864204069,16.552306853104255)" fill="none" stroke="#2c2891" filter="url(#bbburst-blur-2)"></use><use xlink:href="#bbburst-shape-1" width="26.274295895589084" opacity="0.2878660257829727" transform="matrix(1.2384554052744192,-0.1694939796764888,0.1694939796764888,1.2384554052744192,200.4514051426399,-392.0409045883147)" fill="#ffa6d5" filter="url(#bbburst-blur-3)"></use><use xlink:href="#bbburst-shape-1" width="23.59275343490215" opacity="0.17482129254190315" transform="matrix(1.247278103039331,-0.08244594397911909,0.08244594397911909,1.247278103039331,363.83356912368953,273.25082734692745)" fill="#2c2891" filter="url(#bbburst-blur-3)"></use><use xlink:href="#bbburst-shape-1" width="16.754192061656696" opacity="0.7523537331521735" transform="matrix(0.9545395538796415,0.2980842835160133,-0.2980842835160133,0.9545395538796415,601.1514275049582,-50.120661132767566)" fill="#2c2891" filter="url(#bbburst-blur-1)"></use><use xlink:href="#bbburst-shape-8" width="14.313491138853468" opacity="0.8140672944161419" transform="matrix(0.8750446862790665,0.4840421438415979,-0.4840421438415979,0.8750446862790665,670.1473774330825,34.43733706952764)" fill="none" stroke="#00a19d"></use><use xlink:href="#bbburst-shape-1" width="23.136428065292932" opacity="0.27769489708529616" transform="matrix(1.0561696670587333,0.6685847996963769,-0.6685847996963769,1.0561696670587333,972.033555839304,-102.71868264339304)" fill="#00a19d" filter="url(#bbburst-blur-3)"></use><use xlink:href="#bbburst-shape-1" width="39.85906398154942" opacity="-0.024232190654004393" transform="matrix(1.6495345708127287,-0.5844105574796432,0.5844105574796432,1.6495345708127287,-160.86950164062876,-602.8263680062385)" fill="#00a19d" filter="url(#bbburst-blur-4)"></use><use xlink:href="#bbburst-shape-8" width="9.548473583185688" opacity="0.8532108101321" transform="matrix(0.8625522025477818,0.5059680799022508,-0.5059680799022508,0.8625522025477818,622.1995108618107,114.13153095175198)" fill="none" stroke="#2c2891"></use><use xlink:href="#bbburst-shape-1" width="37.53821710569143" opacity="0.25532297662948744" transform="matrix(1.0113017240936737,-0.7346896098660736,0.7346896098660736,1.0113017240936737,16.521219739491585,336.88857772869574)" fill="#2c2891" filter="url(#bbburst-blur-3)"></use><use xlink:href="#bbburst-shape-8" width="22.098565649098095" opacity="0.3246753731038008" transform="matrix(1.2310365428478918,-0.21690788407319472,0.21690788407319472,1.2310365428478918,603.0949627155203,-73.74740740804657)" fill="none" stroke="#ff5c58" filter="url(#bbburst-blur-3)"></use><use xlink:href="#bbburst-shape-1" width="29.955644442041727" opacity="0.09826195838773188" transform="matrix(1.3079793720666533,1.1626220203695283,-1.1626220203695283,1.3079793720666533,1025.3267367633434,223.16251095383495)" fill="#2c2891" filter="url(#bbburst-blur-4)"></use><use xlink:href="#bbburst-shape-1" width="11.878783390168849" opacity="0.7137556137335958" transform="matrix(0.7548231054429598,-0.6559284103386941,0.6559284103386941,0.7548231054429598,184.15338908199777,220.26264499282746)" fill="#00a19d" filter="url(#bbburst-blur-1)"></use><use xlink:href="#bbburst-shape-8" width="28.081328844435586" opacity="0.5494060135315999" transform="matrix(0.9128695995246752,0.4082512636400028,-0.4082512636400028,0.9128695995246752,508.11552740428743,227.4116350722107)" fill="none" stroke="#ffa6d5" filter="url(#bbburst-blur-2)"></use><use xlink:href="#bbburst-shape-1" width="23.05453821274071" opacity="0.17888996152964876" transform="matrix(1.1399360906525238,-0.5128798194780539,0.5128798194780539,1.1399360906525238,551.0435093855053,-38.528880500019795)" fill="#ff5c58" filter="url(#bbburst-blur-3)"></use><use xlink:href="#bbburst-shape-1" width="15.44264661670217" opacity="0.8046437571727152" transform="matrix(0.9480201468495854,-0.31821030964959435,0.31821030964959435,0.9480201468495854,183.58272360188266,55.42034623534539)" fill="#00a19d"></use><use xlink:href="#bbburst-shape-8" width="13.64109983016665" opacity="0.9025305522930466" transform="matrix(0.9028122758709399,-0.43003487595395545,0.43003487595395545,0.9028122758709399,192.65037956818267,9.059819575195888)" fill="none" stroke="#2c2891"></use><use xlink:href="#bbburst-shape-1" width="9.754413376084456" opacity="0.9552550021371901" transform="matrix(0.9996990586970955,-0.024531450021169098,0.024531450021169098,0.9996990586970955,380.5966285844703,-19.322740665967615)" fill="#00a19d"></use><use xlink:href="#bbburst-shape-1" width="37.57286888090502" opacity="0.09275468443801793" transform="matrix(1.4179281981661853,1.0256605797461433,-1.0256605797461433,1.4179281981661853,1038.2473404519867,132.72042076734851)" fill="#ffa6d5" filter="url(#bbburst-blur-4)"></use><use xlink:href="#bbburst-shape-1" width="40.258878472977656" opacity="0.15318384166725085" transform="matrix(1.2451952764691534,0.10949302927085708,-0.10949302927085708,1.2451952764691534,687.6951318759573,-370.15847613720996)" fill="#2c2891" filter="url(#bbburst-blur-3)"></use><use xlink:href="#bbburst-shape-8" width="32.48011935654485" opacity="0.32695905156508465" transform="matrix(1.244887627000168,0.11293713358276088,-0.11293713358276088,1.244887627000168,171.31208205450957,65.71953226534566)" fill="none" stroke="#00a19d" filter="url(#bbburst-blur-3)"></use><use xlink:href="#bbburst-shape-8" width="22.55268739538189" opacity="0.4270993293060005" transform="matrix(0.7718605946764239,0.6357918074226478,-0.6357918074226478,0.7718605946764239,752.031089489097,-150.73007446772894)" fill="none" stroke="#00a19d" filter="url(#bbburst-blur-2)"></use><use xlink:href="#bbburst-shape-1" width="19.2167940367844" opacity="0.7629300459817325" transform="matrix(0.9553706006392739,0.295409910859729,-0.295409910859729,0.9553706006392739,443.2435468889491,-68.9870572382057)" fill="#2c2891" filter="url(#bbburst-blur-1)"></use><use xlink:href="#bbburst-shape-1" width="34.89526420614176" opacity="0.4320281162659909" transform="matrix(0.974281675870452,0.22533356621476427,-0.22533356621476427,0.974281675870452,696.0534568173013,131.40965317983336)" fill="#2c2891" filter="url(#bbburst-blur-2)"></use><use xlink:href="#bbburst-shape-1" width="35.28088635931447" opacity="0.1372033169523924" transform="matrix(1.2444822750666753,0.11731950837295639,-0.11731950837295639,1.2444822750666753,564.6521045087247,-462.0673526684867)" fill="#ffa6d5" filter="url(#bbburst-blur-3)"></use><use xlink:href="#bbburst-shape-8" width="16.675412329243144" opacity="0.7239639357990992" transform="matrix(0.9072865529499584,-0.4205129139945434,0.4205129139945434,0.9072865529499584,240.70624050205035,-82.527193572964)" fill="none" stroke="#2c2891" filter="url(#bbburst-blur-1)"></use><use xlink:href="#bbburst-shape-8" width="29.83072339362047" opacity="0.2109564059597231" transform="matrix(0.9622035336798165,-0.7979125013271029,0.7979125013271029,0.9622035336798165,34.09819397014297,-326.56990747891325)" fill="none" stroke="#ffbd9b" filter="url(#bbburst-blur-3)"></use><use xlink:href="#bbburst-shape-1" width="27.64588219867872" opacity="0.466418395033136" transform="matrix(0.8535571267425034,-0.5209992623671189,0.5209992623671189,0.8535571267425034,8.945433450162255,234.49677052558877)" fill="#00a19d" filter="url(#bbburst-blur-2)"></use><use xlink:href="#bbburst-shape-1" width="38.88648334663311" opacity="0.18180675596818363" transform="matrix(1.0775236297708453,0.6335951604024942,-0.6335951604024942,1.0775236297708453,279.7065295083264,62.2224729702815)" fill="#2c2891" filter="url(#bbburst-blur-3)"></use><use xlink:href="#bbburst-shape-8" width="25.819821206914625" opacity="0.4865190432394292" transform="matrix(0.9997418567165778,-0.02272047378224507,0.02272047378224507,0.9997418567165778,156.48668248638197,-65.33942899234933)" fill="none" stroke="#ffa6d5" filter="url(#bbburst-blur-2)"></use><use xlink:href="#bbburst-shape-8" width="26.35933172178452" opacity="0.535388387764355" transform="matrix(0.9891782420382452,-0.14671879728966825,0.14671879728966825,0.9891782420382452,450.13735642615507,-163.62616796199603)" fill="none" stroke="#ffbd9b" filter="url(#bbburst-blur-2)"></use><use xlink:href="#bbburst-shape-1" width="27.809531780157425" opacity="0.14290529647685613" transform="matrix(0.9226121409176913,0.843378229166057,-0.843378229166057,0.9226121409176913,1089.6019014431192,-105.05222109521378)" fill="#ffbd9b" filter="url(#bbburst-blur-3)"></use><use xlink:href="#bbburst-shape-8" width="28.73465915353011" opacity="0.5471324563261022" transform="matrix(0.9777348082542915,-0.20984433451476323,0.20984433451476323,0.9777348082542915,495.71391621680027,-51.41290035936157)" fill="none" stroke="#ffa6d5" filter="url(#bbburst-blur-2)"></use><use xlink:href="#bbburst-shape-8" width="28.944747955811685" opacity="0.4019353756073235" transform="matrix(0.9347342440411214,-0.3553475664991577,0.3553475664991577,0.9347342440411214,169.01638520609768,289.6244100199278)" fill="none" stroke="#2c2891" filter="url(#bbburst-blur-2)"></use><use xlink:href="#bbburst-shape-1" width="30.641065748345962" opacity="0.07548404111320728" transform="matrix(1.7439303914006041,0.14562551270068058,-0.14562551270068058,1.7439303914006041,74.70782445590135,-85.81098151814729)" fill="#2c2891" filter="url(#bbburst-blur-4)"></use><use xlink:href="#bbburst-shape-1" width="23.068386151074392" opacity="0.5377306176809128" transform="matrix(0.8798189009167643,0.47530905902330206,-0.47530905902330206,0.8798189009167643,622.5254231340118,246.2363700064442)" fill="#00a19d" filter="url(#bbburst-blur-2)"></use><use xlink:href="#bbburst-shape-8" width="16.96257120191431" opacity="0.7429683548037159" transform="matrix(0.7177406258265306,-0.696310558614574,0.696310558614574,0.7177406258265306,227.41577734511253,90.03292207543109)" fill="none" stroke="#ffa6d5" filter="url(#bbburst-blur-1)"></use><use xlink:href="#bbburst-shape-1" width="33.76415004284557" opacity="0.20171304524220635" transform="matrix(0.9428713147871972,0.8206666093801197,-0.8206666093801197,0.9428713147871972,491.89863409283953,-274.6219867281259)" fill="#00a19d" filter="url(#bbburst-blur-3)"></use><use xlink:href="#bbburst-shape-8" width="18.99861510344515" opacity="0.6558086584807958" transform="matrix(0.9995295311179481,0.030671100781271204,-0.030671100781271204,0.9995295311179481,465.7923624477376,-141.58935625896305)" fill="none" stroke="#00a19d" filter="url(#bbburst-blur-1)"></use><use xlink:href="#bbburst-shape-8" width="25.603873681133997" opacity="0.5764895463808142" transform="matrix(0.7578690908789043,-0.6524066531622612,0.6524066531622612,0.7578690908789043,81.20003095342332,-79.1963049862025)" fill="none" stroke="#00a19d" filter="url(#bbburst-blur-1)"></use><use xlink:href="#bbburst-shape-8" width="17.336588025959653" opacity="0.6931623300744223" transform="matrix(0.9494394582192576,-0.31395017944941933,0.31395017944941933,0.9494394582192576,403.15116771122246,40.46294838381169)" fill="none" stroke="#2c2891" filter="url(#bbburst-blur-1)"></use><use xlink:href="#bbburst-shape-1" width="23.83020802007212" opacity="0.13373737200879598" transform="matrix(1.1734525768114592,-0.4307076154127605,0.4307076154127605,1.1734525768114592,579.7848864679925,69.85960848575303)" fill="#00a19d" filter="url(#bbburst-blur-3)"></use><use xlink:href="#bbburst-shape-8" width="20.41634146003875" opacity="0.6318852132386581" transform="matrix(0.9036043103612988,-0.4283681247437554,0.4283681247437554,0.9036043103612988,317.99590098938825,176.06624873170762)" fill="none" stroke="#ffa6d5" filter="url(#bbburst-blur-1)"></use><use xlink:href="#bbburst-shape-8" width="15.618976058643412" opacity="0.7264879558099957" transform="matrix(0.8991143178799784,-0.43771388301403136,0.43771388301403136,0.8991143178799784,224.9157304829102,166.65249378556308)" fill="none" stroke="#ffa6d5" filter="url(#bbburst-blur-1)"></use><use xlink:href="#bbburst-shape-1" width="34.35310726107219" opacity="0.18177470459369205" transform="matrix(0.9860997275939261,0.7681844356918361,-0.7681844356918361,0.9860997275939261,737.263399533707,-372.78529071973605)" fill="#ffbd9b" filter="url(#bbburst-blur-3)"></use><use xlink:href="#bbburst-shape-8" width="33.81639224288637" opacity="0.1917564098306307" transform="matrix(1.0147140716874121,-0.7299694190303819,0.7299694190303819,1.0147140716874121,-272.7588077670739,-1.8801274784315183)" fill="none" stroke="#00a19d" filter="url(#bbburst-blur-3)"></use><use xlink:href="#bbburst-shape-1" width="14.308857713482974" opacity="0.8345844604401221" transform="matrix(0.9677692734013916,-0.25183850670646535,0.25183850670646535,0.9677692734013916,228.7120781152986,-23.91022912061038)" fill="#ffbd9b"></use><use xlink:href="#bbburst-shape-1" width="33.80616026691608" opacity="0.4059789627803725" transform="matrix(0.857820610875438,0.5139492188507444,-0.5139492188507444,0.857820610875438,836.610855482438,-57.40910598187912)" fill="#2c2891" filter="url(#bbburst-blur-2)"></use><use xlink:href="#bbburst-shape-8" width="16.436599189115647" opacity="0.8810605507422541" transform="matrix(0.9559833760474749,-0.2934208321180897,0.2934208321180897,0.9559833760474749,233.1795948188868,53.70038234660774)" fill="none" stroke="#00a19d"></use><use xlink:href="#bbburst-shape-1" width="15.006642077222402" opacity="0.7473895586260217" transform="matrix(0.9965177438269025,0.08338097047972019,-0.08338097047972019,0.9965177438269025,401.6095692371014,-110.2683773677586)" fill="#ff5c58" filter="url(#bbburst-blur-1)"></use><use xlink:href="#bbburst-shape-8" width="17.18735155602899" opacity="0.7386111903517063" transform="matrix(0.8802330350424407,-0.47454167785345625,0.47454167785345625,0.8802330350424407,99.86468936310291,-5.26207178540335)" fill="none" stroke="#00a19d" filter="url(#bbburst-blur-1)"></use><use xlink:href="#bbburst-shape-1" width="10.703324535077144" opacity="0.9156196038677907" transform="matrix(0.8001519776739612,0.599797309617548,-0.599797309617548,0.8001519776739612,670.0926828319531,92.67871109887756)" fill="#ffa6d5"></use><use xlink:href="#bbburst-shape-8" width="35.506881985933006" opacity="0.1379727178552057" transform="matrix(1.2226256282882801,-0.2601664333704263,0.2601664333704263,1.2226256282882801,-88.0300063211968,-223.15904393376468)" fill="none" stroke="#00a19d" filter="url(#bbburst-blur-3)"></use><use xlink:href="#bbburst-shape-1" width="33.195541237938045" opacity="0.3995898856549194" transform="matrix(0.8098562011667352,-0.5866284458085753,0.5866284458085753,0.8098562011667352,9.497020959902471,-143.7620512965296)" fill="#ffa6d5" filter="url(#bbburst-blur-2)"></use><use xlink:href="#bbburst-shape-8" width="19.485683749584716" opacity="0.6268294449190028" transform="matrix(0.8770034578359103,-0.48048406315283415,0.48048406315283415,0.8770034578359103,254.32087930176277,212.52383524778975)" fill="none" stroke="#2c2891" filter="url(#bbburst-blur-1)"></use><use xlink:href="#bbburst-shape-1" width="27.671964673632196" opacity="0.49233249012085056" transform="matrix(0.9041491762379993,-0.4272168853265837,0.4272168853265837,0.9041491762379993,231.7671232327395,-183.66403816501477)" fill="#ffa6d5" filter="url(#bbburst-blur-2)"></use><use xlink:href="#bbburst-shape-8" width="13.205100319136298" opacity="0.9017263567143704" transform="matrix(0.9563577447240833,0.29219833008808427,-0.29219833008808427,0.9563577447240833,553.6075593569672,5.37785482343503)" fill="none" stroke="#2c2891"></use><use xlink:href="#bbburst-shape-8" width="22.51748221597029" opacity="0.6444839593242003" transform="matrix(0.9108645925517149,-0.4127053356035009,0.4127053356035009,0.9108645925517149,365.7127884712173,-35.19216358821143)" fill="none" stroke="#00a19d" filter="url(#bbburst-blur-1)"></use><use xlink:href="#bbburst-shape-1" width="16.64396176760949" opacity="0.6388121374094959" transform="matrix(0.9955231283680804,0.09451825688315686,-0.09451825688315686,0.9955231283680804,423.9586576200425,163.46487316053305)" fill="#2c2891" filter="url(#bbburst-blur-1)"></use><use xlink:href="#bbburst-shape-8" width="25.33792040257571" opacity="0.45778069421380874" transform="matrix(0.9396932184451966,-0.34201850126580574,0.34201850126580574,0.9396932184451966,489.86147300787337,79.6211597495934)" fill="none" stroke="#00a19d" filter="url(#bbburst-blur-2)"></use><use xlink:href="#bbburst-shape-1" width="21.504036374055204" opacity="0.6510025203263734" transform="matrix(0.999505005759272,-0.03146018852705031,0.03146018852705031,0.999505005759272,531.6813447148234,-24.652430173659297)" fill="#ffbd9b" filter="url(#bbburst-blur-1)"></use><use xlink:href="#bbburst-shape-1" width="41.46091475433585" opacity="-0.08428926389806013" transform="matrix(1.7040582233018322,-0.3983535761072102,0.3983535761072102,1.7040582233018322,-143.42333098692566,67.94456980435234)" fill="#ffa6d5" filter="url(#bbburst-blur-4)"></use><use xlink:href="#bbburst-shape-1" width="34.67171356618587" opacity="0.398169897030785" transform="matrix(0.8358972879086985,-0.5488858934850506,0.5488858934850506,0.8358972879086985,251.68911140902892,332.0969288410216)" fill="#ffbd9b" filter="url(#bbburst-blur-2)"></use><use xlink:href="#bbburst-shape-1" width="10.349203816140623" opacity="0.7542337145884075" transform="matrix(0.8526272979253363,-0.5225195602391741,0.5225195602391741,0.8526272979253363,256.87868328946206,147.0476221926716)" fill="#2c2891" filter="url(#bbburst-blur-1)"></use><use xlink:href="#bbburst-shape-1" width="12.333144573282187" opacity="0.8727998071788623" transform="matrix(0.8633448773343875,-0.5046143307323638,0.5046143307323638,0.8633448773343875,181.5297341994922,113.89936584983008)" fill="#ffbd9b"></use><use xlink:href="#bbburst-shape-8" width="25.669189885145748" opacity="0.3567569415580355" transform="matrix(0.7594715566068876,0.6505405096572474,-0.6505405096572474,0.7594715566068876,652.5611434512996,-201.5898636685131)" fill="none" stroke="#ffa6d5" filter="url(#bbburst-blur-2)"></use><use xlink:href="#bbburst-shape-8" width="25.19092570348419" opacity="0.1494636923475089" transform="matrix(0.9253935743037427,-0.8403253730772048,0.8403253730772048,0.9253935743037427,-54.07032538079568,-327.26127218818834)" fill="none" stroke="#ffa6d5" filter="url(#bbburst-blur-3)"></use><use xlink:href="#bbburst-shape-8" width="37.17958247437228" opacity="0.08817426220898672" transform="matrix(1.4960782802426174,0.907882029443414,-0.907882029443414,1.4960782802426174,540.1253170104665,-576.2167242112829)" fill="none" stroke="#2c2891" filter="url(#bbburst-blur-4)"></use><use xlink:href="#bbburst-shape-1" width="24.180002485024023" opacity="0.31480490743515277" transform="matrix(1.1927937772763433,-0.3738221567682059,0.3738221567682059,1.1927937772763433,463.5193195101907,135.61053556289136)" fill="#ff5c58" filter="url(#bbburst-blur-3)"></use><use xlink:href="#bbburst-shape-1" width="42.74662162293653" opacity="-0.0988211210348211" transform="matrix(1.7456238534014978,0.1236825065872529,-0.1236825065872529,1.7456238534014978,754.5752641607792,55.9235126079393)" fill="#ffbd9b" filter="url(#bbburst-blur-4)"></use><use xlink:href="#bbburst-shape-8" width="35.85417257938923" opacity="-0.0912849591565188" transform="matrix(1.3623947872207713,-1.0983535149275343,1.0983535149275343,1.3623947872207713,285.2605697038821,-470.7221711894039)" fill="none" stroke="#ff5c58" filter="url(#bbburst-blur-4)"></use><use xlink:href="#bbburst-shape-8" width="33.38870586983054" opacity="0.5321134525331062" transform="matrix(0.9999078145559099,-0.013578011269108556,0.013578011269108556,0.9999078145559099,187.76608986705747,90.75712294107439)" fill="none" stroke="#00a19d" filter="url(#bbburst-blur-2)"></use><use xlink:href="#bbburst-shape-1" width="21.69402383679192" opacity="0.5535110143360946" transform="matrix(0.953659120885842,0.3008891509364254,-0.3008891509364254,0.953659120885842,568.6971528114047,-176.8565294744594)" fill="#00a19d" filter="url(#bbburst-blur-2)"></use><use xlink:href="#bbburst-shape-8" width="37.93716640837452" opacity="0.03884657431031491" transform="matrix(1.7362993578124648,0.2185510010501483,-0.2185510010501483,1.7362993578124648,696.4078884039493,-657.1986813908857)" fill="none" stroke="#2c2891" filter="url(#bbburst-blur-4)"></use><use xlink:href="#bbburst-shape-1" width="21.657676365020716" opacity="0.4576811679469137" transform="matrix(0.9932342386468107,0.11612814981601259,-0.11612814981601259,0.9932342386468107,436.3988428088797,245.51894182260736)" fill="#ff5c58" filter="url(#bbburst-blur-2)"></use><use xlink:href="#bbburst-shape-8" width="26.766600756719736" opacity="0.3724352024025043" transform="matrix(0.8529605471247457,0.5219753873973892,-0.5219753873973892,0.8529605471247457,788.2099973722143,-156.3381946647983)" fill="none" stroke="#2c2891" filter="url(#bbburst-blur-2)"></use><use xlink:href="#bbburst-shape-1" width="13.884112877601241" opacity="0.8165401452080656" transform="matrix(0.7925225962233238,0.6098425489218036,-0.6098425489218036,0.7925225962233238,594.8327328116327,148.8816195836324)" fill="#2c2891"></use><use xlink:href="#bbburst-shape-8" width="32.25751011395143" opacity="0.3024708789571531" transform="matrix(0.8876334788346545,-0.8801174962764284,0.8801174962764284,0.8876334788346545,330.40929500479655,161.37535771315004)" fill="none" stroke="#2c2891" filter="url(#bbburst-blur-3)"></use><use xlink:href="#bbburst-shape-8" width="16.123021682296258" opacity="0.8310819930934864" transform="matrix(0.9285406256204225,0.3712307996010492,-0.3712307996010492,0.9285406256204225,585.6614115431369,-35.922873068119486)" fill="none" stroke="#ffa6d5"></use><use xlink:href="#bbburst-shape-8" width="30.76428381520421" opacity="0.489676418387027" transform="matrix(0.7864995276805027,-0.6175908782991749,0.6175908782991749,0.7864995276805027,-43.92032562912564,-41.44974505649793)" fill="none" stroke="#00a19d" filter="url(#bbburst-blur-2)"></use><use xlink:href="#bbburst-shape-1" width="31.16845219005939" opacity="0.3070545261403216" transform="matrix(1.1113238990231158,-0.5722405014153226,0.5722405014153226,1.1113238990231158,324.4119731035093,225.44886953760505)" fill="#00a19d" filter="url(#bbburst-blur-3)"></use><use xlink:href="#bbburst-shape-1" width="32.30699267405224" opacity="-0.08557441006851008" transform="matrix(1.7411335163380421,-0.17593771137628564,0.17593771137628564,1.7411335163380421,-65.91261189765338,-615.4759721128257)" fill="#2c2891" filter="url(#bbburst-blur-4)"></use><use xlink:href="#bbburst-shape-8" width="32.98824185739237" opacity="0.19845886235383126" transform="matrix(1.1053713456114467,-0.5836558817498027,0.5836558817498027,1.1053713456114467,447.66933844713276,168.67756131311137)" fill="none" stroke="#00a19d" filter="url(#bbburst-blur-3)"></use><use xlink:href="#bbburst-shape-1" width="13.736361746374717" opacity="0.8387881745704378" transform="matrix(0.9963416966779903,-0.0854588992488414,0.0854588992488414,0.9963416966779903,334.12677703477453,-66.08923263041208)" fill="#ffbd9b"></use><use xlink:href="#bbburst-shape-1" width="35.01763603203429" opacity="0.37074777161132744" transform="matrix(0.947274878360089,-0.3204220729411112,0.3204220729411112,0.947274878360089,-19.045864455303303,97.01298348038068)" fill="#00a19d" filter="url(#bbburst-blur-2)"></use><use xlink:href="#bbburst-shape-1" width="14.703721946984457" opacity="0.7904607937699304" transform="matrix(0.995618375551819,-0.09350962658227856,0.09350962658227856,0.995618375551819,387.1026146389117,91.21884112223518)" fill="#00a19d"></use><use xlink:href="#bbburst-shape-8" width="15.025854300594247" opacity="0.8070741093403015" transform="matrix(0.717333921294815,-0.6967295353003231,0.6967295353003231,0.717333921294815,132.2202849159769,33.0284475503214)" fill="none" stroke="#ff5c58"></use><use xlink:href="#bbburst-shape-1" width="25.64158223617024" opacity="0.21295788098776913" transform="matrix(1.0156645203022276,0.7286464040940887,-0.7286464040940887,1.0156645203022276,780.3982955405563,323.593465410825)" fill="#ffbd9b" filter="url(#bbburst-blur-3)"></use><use xlink:href="#bbburst-shape-1" width="30.075626488692738" opacity="0.4952599299895657" transform="matrix(0.8627878520419271,0.5055661404493755,-0.5055661404493755,0.8627878520419271,753.0489571375313,204.64833721988805)" fill="#2c2891" filter="url(#bbburst-blur-2)"></use><use xlink:href="#bbburst-shape-1" width="18.635170569958202" opacity="0.7455325100748735" transform="matrix(0.9105231671096288,-0.413458053684592,0.413458053684592,0.9105231671096288,143.7078146483445,119.14519497218527)" fill="#ff5c58" filter="url(#bbburst-blur-1)"></use><use xlink:href="#bbburst-shape-8" width="23.86007764879736" opacity="0.6401749095494731" transform="matrix(0.8795581121236521,0.4757914747002905,-0.4757914747002905,0.8795581121236521,707.3488456555276,142.27914171068676)" fill="none" stroke="#ff5c58" filter="url(#bbburst-blur-1)"></use><use xlink:href="#bbburst-shape-1" width="12.508520032007587" opacity="0.8464755066038325" transform="matrix(0.919778580527038,-0.3924377183753711,0.3924377183753711,0.919778580527038,290.36156429298944,78.77420272755973)" fill="#ffbd9b"></use><use xlink:href="#bbburst-shape-1" width="24.125241295531154" opacity="0.6277778790575788" transform="matrix(0.9626055094975291,-0.2709070561742577,0.2709070561742577,0.9626055094975291,123.16561529721572,-40.46853153990298)" fill="#2c2891" filter="url(#bbburst-blur-1)"></use><use xlink:href="#bbburst-shape-8" width="14.361013308105449" opacity="0.7038927140331673" transform="matrix(0.9140322119497073,-0.40564160969792706,0.40564160969792706,0.9140322119497073,352.90867540466013,91.49640492402762)" fill="none" stroke="#00a19d" filter="url(#bbburst-blur-1)"></use><use xlink:href="#bbburst-shape-8" width="12.088848690990986" opacity="0.860426037257432" transform="matrix(0.9931877260493257,-0.11652527976782324,0.11652527976782324,0.9931877260493257,409.0047323344712,15.59862501965381)" fill="none" stroke="#00a19d"></use><use xlink:href="#bbburst-shape-1" width="32.370304551638974" opacity="0.2541943792639929" transform="matrix(1.2455760998413576,-0.10507225848906124,0.10507225848906124,1.2455760998413576,512.5341641539176,-383.02491113216263)" fill="#ffa6d5" filter="url(#bbburst-blur-3)"></use><use xlink:href="#bbburst-shape-8" width="23.547567922431035" opacity="0.5725216818408496" transform="matrix(0.9172003771693485,0.39842623924687076,-0.39842623924687076,0.9172003771693485,740.6751666535058,38.45839037587126)" fill="none" stroke="#00a19d" filter="url(#bbburst-blur-1)"></use><use xlink:href="#bbburst-shape-1" width="34.080104214041356" opacity="0.14137425672124893" transform="matrix(0.930461699913957,-0.8347101442975456,0.8347101442975456,0.930461699913957,-83.3185421037,404.622765834646)" fill="#ffa6d5" filter="url(#bbburst-blur-3)"></use><use xlink:href="#bbburst-shape-8" width="21.48521533628155" opacity="0.6330657765264217" transform="matrix(0.9651481545890567,0.26170410713884174,-0.26170410713884174,0.9651481545890567,496.90903595047405,-153.97064314184595)" fill="none" stroke="#ff5c58" filter="url(#bbburst-blur-1)"></use><use xlink:href="#bbburst-shape-8" width="15.948751182259176" opacity="0.8042205692506224" transform="matrix(0.9931693632594856,0.11668168614974705,-0.11668168614974705,0.9931693632594856,432.24064121659774,89.66152633258713)" fill="none" stroke="#2c2891"></use><use xlink:href="#bbburst-shape-8" width="28.916162604331365" opacity="0.33234238400395566" transform="matrix(1.0906347237766678,-0.6107502757204384,0.6107502757204384,1.0906347237766678,-82.28501568328699,-229.630492625013)" fill="none" stroke="#2c2891" filter="url(#bbburst-blur-3)"></use><use xlink:href="#bbburst-shape-1" width="35.46082477095541" opacity="0.31925566056803545" transform="matrix(0.9981579605577483,-0.752449789537612,0.752449789537612,0.9981579605577483,-195.52696933319797,-116.93559355492448)" fill="#ffa6d5" filter="url(#bbburst-blur-3)"></use><use xlink:href="#bbburst-shape-1" width="12.614424271384475" opacity="0.93490593075728" transform="matrix(0.7108106577771945,0.7033834009914878,-0.7033834009914878,0.7108106577771945,670.1991275740654,139.776172434577)" fill="#2c2891"></use><use xlink:href="#bbburst-shape-8" width="33.12954602748942" opacity="0.5031394930366275" transform="matrix(0.9978647548247851,0.06531409555732691,-0.06531409555732691,0.9978647548247851,186.42529237474506,13.409238298382263)" fill="none" stroke="#2c2891" filter="url(#bbburst-blur-2)"></use><use xlink:href="#bbburst-shape-8" width="19.216518370062516" opacity="0.6846232583718546" transform="matrix(0.9600040804090012,-0.279986009647032,0.279986009647032,0.9600040804090012,146.90225900211084,71.1192949177119)" fill="none" stroke="#ffa6d5" filter="url(#bbburst-blur-1)"></use><use xlink:href="#bbburst-shape-8" width="16.11565918131022" opacity="0.7435098010693305" transform="matrix(0.9701439770155537,0.24252971747900282,-0.24252971747900282,0.9701439770155537,550.2366468804809,-87.96992413678487)" fill="none" stroke="#ffa6d5" filter="url(#bbburst-blur-1)"></use><use xlink:href="#bbburst-shape-8" width="29.079183378206874" opacity="0.4704571078770794" transform="matrix(0.8316875560892824,-0.5552439185135095,0.5552439185135095,0.8316875560892824,48.89322365903297,283.03864229490347)" fill="none" stroke="#00a19d" filter="url(#bbburst-blur-2)"></use><use xlink:href="#bbburst-shape-8" width="14.667957562401979" opacity="0.841044549613963" transform="matrix(0.9439806146711672,0.33000090776397145,-0.33000090776397145,0.9439806146711672,587.1392732798431,-15.576981954916675)" fill="none" stroke="#ffa6d5"></use><use xlink:href="#bbburst-shape-8" width="10.99576637707364" opacity="0.910288379713033" transform="matrix(0.9571127997791922,-0.28971553030315084,0.28971553030315084,0.9571127997791922,298.16221719986686,54.199906599177496)" fill="none" stroke="#2c2891"></use><use xlink:href="#bbburst-shape-8" width="37.108311036174484" opacity="0.27165373733525966" transform="matrix(1.0082153952521125,0.7389192897581078,-0.7389192897581078,1.0082153952521125,953.2594066442565,-193.14348029080364)" fill="none" stroke="#ffbd9b" filter="url(#bbburst-blur-3)"></use><use xlink:href="#bbburst-shape-8" width="29.624005558508554" opacity="0.020754350937926103" transform="matrix(1.5689012074710629,0.7752735008987739,-0.7752735008987739,1.5689012074710629,1043.8799360000917,19.270345185239535)" fill="none" stroke="#00a19d" filter="url(#bbburst-blur-4)"></use><use xlink:href="#bbburst-shape-1" width="28.566588625878616" opacity="0.316101391227924" transform="matrix(1.0006558565498274,0.7491247270999212,-0.7491247270999212,1.0006558565498274,766.4338013475794,-307.8006659675377)" fill="#ff5c58" filter="url(#bbburst-blur-3)"></use><use xlink:href="#bbburst-shape-1" width="41.159093956969166" opacity="0.054047303491018384" transform="matrix(1.6389969442797017,-0.6133424953823112,0.6133424953823112,1.6389969442797017,-117.18663556096715,109.93595513246112)" fill="#2c2891" filter="url(#bbburst-blur-4)"></use><use xlink:href="#bbburst-shape-8" width="23.14212269213531" opacity="0.6729527412971545" transform="matrix(0.8020522508591776,-0.5972538713911588,0.5972538713911588,0.8020522508591776,86.07124221532266,-45.57918924666939)" fill="none" stroke="#00a19d" filter="url(#bbburst-blur-1)"></use><use xlink:href="#bbburst-shape-1" width="38.285489194711445" opacity="0.28732189959358256" transform="matrix(1.2413590701962929,-0.1467230685386421,0.1467230685386421,1.2413590701962929,139.86736748597954,173.3073801197438)" fill="#ff5c58" filter="url(#bbburst-blur-3)"></use><use xlink:href="#bbburst-shape-1" width="12.832964984603043" opacity="0.7697674560760592" transform="matrix(0.8307295563212261,0.556676211324266,-0.556676211324266,0.8307295563212261,702.6385098332563,122.94230215112958)" fill="#2c2891" filter="url(#bbburst-blur-1)"></use><use xlink:href="#bbburst-shape-1" width="38.1063759949076" opacity="0.33688006426774486" transform="matrix(0.9961377743158071,-0.08780395538442505,0.08780395538442505,0.9961377743158071,49.71063013208112,-32.995363798434994)" fill="#ffbd9b" filter="url(#bbburst-blur-2)"></use><use xlink:href="#bbburst-shape-1" width="44.56310615104808" opacity="0.11801446802798288" transform="matrix(1.1788695615128855,-0.41565196611879207,0.41565196611879207,1.1788695615128855,-113.57407923249082,-295.53916559358333)" fill="#ffa6d5" filter="url(#bbburst-blur-3)"></use><use xlink:href="#bbburst-shape-1" width="20.537787206020898" opacity="0.7614582977375188" transform="matrix(0.9672652332160416,0.2537675483814207,-0.2537675483814207,0.9672652332160416,384.5188818214931,2.5596215784184437)" fill="#ffa6d5" filter="url(#bbburst-blur-1)"></use><use xlink:href="#bbburst-shape-8" width="28.10944076407376" opacity="0.6282927847984354" transform="matrix(0.9379730559178381,-0.3467081573487306,0.3467081573487306,0.9379730559178381,127.01230755174032,145.0450392098016)" fill="none" stroke="#ff5c58" filter="url(#bbburst-blur-1)"></use><use xlink:href="#bbburst-shape-1" width="23.333920739377053" opacity="0.6344996705110278" transform="matrix(0.7380774073397808,0.67471604455103,-0.67471604455103,0.7380774073397808,538.7793315828612,-12.861251091373049)" fill="#ff5c58" filter="url(#bbburst-blur-1)"></use><use xlink:href="#bbburst-shape-8" width="24.577026182099882" opacity="0.4343209321216782" transform="matrix(0.9562273893241431,0.2926246399507973,-0.2926246399507973,0.9562273893241431,444.9958827489529,-233.39649092969628)" fill="none" stroke="#ffbd9b" filter="url(#bbburst-blur-2)"></use><use xlink:href="#bbburst-shape-8" width="14.191635591881676" opacity="0.9479943405672809" transform="matrix(0.9763234989315864,-0.2163155690975216,0.2163155690975216,0.9763234989315864,283.58131695350727,15.511485250435271)" fill="none" stroke="#2c2891"></use><use xlink:href="#bbburst-shape-1" width="46.1123063570856" opacity="0.16136569488899166" transform="matrix(1.2435198739767526,-0.1271153925566907,0.1271153925566907,1.2435198739767526,44.73571903899443,163.23796205858758)" fill="#00a19d" filter="url(#bbburst-blur-3)"></use><use xlink:href="#bbburst-shape-8" width="23.21281054445442" opacity="0.6213395372660706" transform="matrix(0.9893885120675302,-0.14529408862303592,0.14529408862303592,0.9893885120675302,253.08419440295864,157.7782608685751)" fill="none" stroke="#00a19d" filter="url(#bbburst-blur-1)"></use><use xlink:href="#bbburst-shape-1" width="9.969785205351204" opacity="0.975072349823429" transform="matrix(0.946205862455244,0.3235652420383376,-0.3235652420383376,0.946205862455244,535.5602894317142,22.744967056320206)" fill="#ffbd9b"></use><use xlink:href="#bbburst-shape-1" width="12.92462370255325" opacity="0.884509052810247" transform="matrix(0.9983137089015244,0.05804944977588092,-0.05804944977588092,0.9983137089015244,423.3811624470719,-51.232377088569365)" fill="#ffa6d5"></use><use xlink:href="#bbburst-shape-8" width="18.45254937180195" opacity="0.7267741495779558" transform="matrix(0.9309760523836654,0.3650802512984325,-0.3650802512984325,0.9309760523836654,494.3963974530134,139.41122442344897)" fill="none" stroke="#00a19d" filter="url(#bbburst-blur-1)"></use></svg>